{
  "accessors": [
    {
      "bufferView": 2,
      "componentType": 5126,
      "count": 4,
      "max": [
        167.02890014648438,
        167.02890014648438,
        0
      ],
      "min": [
        -167.02890014648438,
        -167.02890014648438,
        0
      ],
      "type": "VEC3"
    },
    {
      "bufferView": 2,
      "byteOffset": 48,
      "componentType": 5126,
      "count": 4,
      "max": [
        0,
        0,
        1
      ],
      "min": [
        0,
        0,
        1
      ],
      "type": "VEC3"
    },
    {
      "bufferView": 3,
      "componentType": 5126,
      "count": 4,
      "max": [
        1,
        2.3841863594498136e-07,
        0,
        1
      ],
      "min": [
        1,
        1.8270841906087298e-07,
        0,
        1
      ],
      "type": "VEC4"
    },
    {
      "bufferView": 1,
      "componentType": 5126,
      "count": 4,
      "max": [
        1,
        1
      ],
      "min": [
        2.9802322387695312e-08,
        2.9802322387695312e-08
      ],
      "type": "VEC2"
    },
    {
      "bufferView": 0,
      "componentType": 5125,
      "count": 6,
      "max": [
        3
      ],
      "min": [
        0
      ],
      "type": "SCALAR"
    },
    {
      "bufferView": 2,
      "byteOffset": 96,
      "componentType": 5126,
      "count": 15848,
      "max": [
        27.423545837402344,
        26.716117858886719,
        27.371982574462891
      ],
      "min": [
        -27.544448852539062,
        -12.901966094970703,
        -26.074392318725586
      ],
      "type": "VEC3"
    },
    {
      "bufferView": 2,
      "byteOffset": 190272,
      "componentType": 5126,
      "count": 15848,
      "max": [
        1,
        0.99999994039535522,
        0.99999839067459106
      ],
      "min": [
        -0.99999994039535522,
        -0.99999994039535522,
        -0.99999898672103882
      ],
      "type": "VEC3"
    },
    {
      "bufferView": 3,
      "byteOffset": 64,
      "componentType": 5126,
      "count": 15848,
      "max": [
        1,
        0.99998033046722412,
        0.99999988079071045,
        1
      ],
      "min": [
        -1,
        -0.99999779462814331,
        -0.99999868869781494,
        -1
      ],
      "type": "VEC4"
    },
    {
      "bufferView": 1,
      "byteOffset": 32,
      "componentType": 5126,
      "count": 15848,
      "max": [
        0.99860507249832153,
        0.99950003623962402
      ],
      "min": [
        0.00050000002374872565,
        0.00050000002374872565
      ],
      "type": "VEC2"
    },
    {
      "bufferView": 1,
      "byteOffset": 126816,
      "componentType": 5126,
      "count": 15848,
      "max": [
        6.9390325546264648,
        6.9401679039001465
      ],
      "min": [
        0.0035000001080334187,
        0.0035000001080334187
      ],
      "type": "VEC2"
    },
    {
      "bufferView": 1,
      "byteOffset": 253600,
      "componentType": 5126,
      "count": 15848,
      "max": [
        0.99860507249832153,
        0.99950003623962402
      ],
      "min": [
        0.00050000002374872565,
        0.00050000002374872565
      ],
      "type": "VEC2"
    },
    {
      "bufferView": 0,
      "byteOffset": 24,
      "componentType": 5125,
      "count": 89016,
      "max": [
        15847
      ],
      "min": [
        0
      ],
      "type": "SCALAR"
    },
    {
      "bufferView": 2,
      "byteOffset": 380448,
      "componentType": 5126,
      "count": 438,
      "max": [
        11.55372142791748,
        20.854400634765625,
        -11.993457794189453
      ],
      "min": [
        -11.649812698364258,
        11.725732803344727,
        -16.526979446411133
      ],
      "type": "VEC3"
    },
    {
      "bufferView": 2,
      "byteOffset": 385704,
      "componentType": 5126,
      "count": 438,
      "max": [
        0.99998509883880615,
        0.99277627468109131,
        0.99488157033920288
      ],
      "min": [
        -0.9999842643737793,
        -0.99940931797027588,
        -0.71704673767089844
      ],
      "type": "VEC3"
    },
    {
      "bufferView": 3,
      "byteOffset": 253632,
      "componentType": 5126,
      "count": 438,
      "max": [
        0.9999997615814209,
        0.88598489761352539,
        0.99919849634170532,
        1
      ],
      "min": [
        -0.5413927435874939,
        -0.88687419891357422,
        -0.99989563226699829,
        1
      ],
      "type": "VEC4"
    },
    {
      "bufferView": 1,
      "byteOffset": 380384,
      "componentType": 5126,
      "count": 438,
      "max": [
        0.78924661874771118,
        0.4034389853477478
      ],
      "min": [
        0.0054818121716380119,
        0.00050000002374872565
      ],
      "type": "VEC2"
    },
    {
      "bufferView": 1,
      "byteOffset": 383888,
      "componentType": 5126,
      "count": 438,
      "max": [
        0.95374768972396851,
        0.96903771162033081
      ],
      "min": [
        0.033345825970172882,
        0.026710262522101402
      ],
      "type": "VEC2"
    },
    {
      "bufferView": 1,
      "byteOffset": 387392,
      "componentType": 5126,
      "count": 438,
      "max": [
        0.78924661874771118,
        0.4034389853477478
      ],
      "min": [
        0.0054818121716380119,
        0.00050000002374872565
      ],
      "type": "VEC2"
    },
    {
      "bufferView": 0,
      "byteOffset": 356088,
      "componentType": 5125,
      "count": 2304,
      "max": [
        437
      ],
      "min": [
        0
      ],
      "type": "SCALAR"
    },
    {
      "bufferView": 2,
      "byteOffset": 390960,
      "componentType": 5126,
      "count": 498,
      "max": [
        19.40574836730957,
        -12.511987686157227,
        23.106470108032227
      ],
      "min": [
        -19.514324188232422,
        -27.406204223632812,
        -14.514030456542969
      ],
      "type": "VEC3"
    },
    {
      "bufferView": 2,
      "byteOffset": 396936,
      "componentType": 5126,
      "count": 498,
      "max": [
        0.99455803632736206,
        0.14086525142192841,
        0.99794274568557739
      ],
      "min": [
        -0.99455797672271729,
        -1,
        -0.99794274568557739
      ],
      "type": "VEC3"
    },
    {
      "bufferView": 3,
      "byteOffset": 260640,
      "componentType": 5126,
      "count": 498,
      "max": [
        1,
        0.086081072688102722,
        0.9999346137046814,
        1
      ],
      "min": [
        -0.99988168478012085,
        -0.086100690066814423,
        -0.99993455410003662,
        -1
      ],
      "type": "VEC4"
    },
    {
      "bufferView": 1,
      "byteOffset": 390896,
      "componentType": 5126,
      "count": 498,
      "max": [
        0.99007618427276611,
        0.60382258892059326
      ],
      "min": [
        0.042978376150131226,
        0.17984522879123688
      ],
      "type": "VEC2"
    },
    {
      "bufferView": 1,
      "byteOffset": 394880,
      "componentType": 5126,
      "count": 498,
      "max": [
        6.9965000152587891,
        6.8200564384460449
      ],
      "min": [
        2.5460553169250488,
        2.0650312900543213
      ],
      "type": "VEC2"
    },
    {
      "bufferView": 0,
      "byteOffset": 365304,
      "componentType": 5125,
      "count": 1200,
      "max": [
        497
      ],
      "min": [
        0
      ],
      "type": "SCALAR"
    }
  ],
  "asset": {
    "extras": {
      "author": "MADE.COM (https://sketchfab.com/made-it)",
      "license": "CC-BY-NC-4.0 (http://creativecommons.org/licenses/by-nc/4.0/)",
      "source": "https://sketchfab.com/3d-models/ritchie-armchairpearl-grey-with-rainbow-buttons-9ddae467c4034b01b5e5dcf6c4dd12d5",
      "title": "Ritchie Armchair,Pearl Grey with Rainbow Buttons"
    },
    "generator": "Sketchfab-5.10.0",
    "version": "2.0"
  },
  "bufferViews": [
    {
      "buffer": 0,
      "byteLength": 370104,
      "byteOffset": 0,
      "name": "floatBufferViews",
      "target": 34963
    },
    {
      "buffer": 0,
      "byteLength": 398864,
      "byteOffset": 370104,
      "byteStride": 8,
      "name": "floatBufferViews",
      "target": 34962
    },
    {
      "buffer": 0,
      "byteLength": 402912,
      "byteOffset": 768968,
      "byteStride": 12,
      "name": "floatBufferViews",
      "target": 34962
    },
    {
      "buffer": 0,
      "byteLength": 268608,
      "byteOffset": 1171880,
      "byteStride": 16,
      "name": "floatBufferViews",
      "target": 34962
    }
  ],
  "buffers": [
    {
      "byteLength": 1440488,
      "uri": "scene.bin"
    }
  ],
  "images": [
    {
      "uri": "textures/LEGS_metallicRoughness.png"
    },
    {
      "uri": "textures/RAINBOW_BUTTONS_baseColor.jpeg"
    },
    {
      "uri": "textures/RAINBOW_BUTTONS_metallicRoughness.png"
    },
    {
      "uri": "textures/PEARL_GREY_baseColor.jpeg"
    },
    {
      "uri": "textures/PEARL_GREY_metallicRoughness.png"
    },
    {
      "uri": "textures/FLOOR_baseColor.png"
    }
  ],
  "materials": [
    {
      "alphaMode": "BLEND",
      "doubleSided": true,
      "emissiveFactor": [
        0,
        0,
        0
      ],
      "name": "FLOOR",
      "pbrMetallicRoughness": {
        "baseColorFactor": [
          0,
          0,
          0,
          1
        ],
        "baseColorTexture": {
          "index": 5,
          "texCoord": 0
        },
        "metallicFactor": 0,
        "roughnessFactor": 1
      }
    },
    {
      "doubleSided": true,
      "emissiveFactor": [
        0,
        0,
        0
      ],
      "name": "PEARL_GREY",
      "occlusionTexture": {
        "index": 4,
        "strength": 0.64805640239999995,
        "texCoord": 0
      },
      "pbrMetallicRoughness": {
        "baseColorFactor": [
          1,
          1,
          1,
          1
        ],
        "baseColorTexture": {
          "index": 3,
          "texCoord": 0
        },
        "metallicFactor": 0,
        "roughnessFactor": 0.89297135959999996
      }
    },
    {
      "doubleSided": true,
      "emissiveFactor": [
        0,
        0,
        0
      ],
      "name": "RAINBOW_BUTTONS",
      "occlusionTexture": {
        "index": 2,
        "strength": 0.36756859759999999,
        "texCoord": 0
      },
      "pbrMetallicRoughness": {
        "baseColorFactor": [
          1,
          1,
          1,
          1
        ],
        "baseColorTexture": {
          "index": 1,
          "texCoord": 0
        },
        "metallicFactor": 0,
        "roughnessFactor": 0.89297135959999996
      }
    },
    {
      "doubleSided": true,
      "emissiveFactor": [
        0,
        0,
        0
      ],
      "name": "LEGS",
      "occlusionTexture": {
        "index": 0,
        "strength": 1,
        "texCoord": 0
      },
      "pbrMetallicRoughness": {
        "baseColorFactor": [
          0.0078431400000000002,
          0.0078431400000000002,
          0.0078431400000000002,
          1
        ],
        "metallicFactor": 0,
        "roughnessFactor": 0.5078125
      }
    }
  ],
  "meshes": [
    {
      "name": "Plane001_FLOOR_0",
      "primitives": [
        {
          "attributes": {
            "NORMAL": 1,
            "POSITION": 0,
            "TANGENT": 2,
            "TEXCOORD_0": 3
          },
          "indices": 4,
          "material": 0,
          "mode": 4
        }
      ]
    },
    {
      "name": "Ritchie_Armchair_RainbowButtons_PEARL_GREY_0",
      "primitives": [
        {
          "attributes": {
            "NORMAL": 6,
            "POSITION": 5,
            "TANGENT": 7,
            "TEXCOORD_0": 8,
            "TEXCOORD_1": 9,
            "TEXCOORD_2": 10
          },
          "indices": 11,
          "material": 1,
          "mode": 4
        }
      ]
    },
    {
      "name": "Ritchie_Armchair_RainbowButtons_RAINBOW_BUTTONS_0",
      "primitives": [
        {
          "attributes": {
            "NORMAL": 13,
            "POSITION": 12,
            "TANGENT": 14,
            "TEXCOORD_0": 15,
            "TEXCOORD_1": 16,
            "TEXCOORD_2": 17
          },
          "indices": 18,
          "material": 2,
          "mode": 4
        }
      ]
    },
    {
      "name": "Ritchie_Armchair_RainbowButtons_LEGS_0",
      "primitives": [
        {
          "attributes": {
            "NORMAL": 20,
            "POSITION": 19,
            "TANGENT": 21,
            "TEXCOORD_0": 22,
            "TEXCOORD_1": 23
          },
          "indices": 24,
          "material": 3,
          "mode": 4
        }
      ]
    }
  ],
  "nodes": [
    {
      "children": [
        1
      ],
      "name": "RootNode (gltf orientation matrix)",
      "rotation": [
        -0.70710678118654746,
        -0,
        -0,
        0.70710678118654757
      ]
    },
    {
      "children": [
        2
      ],
      "name": "RootNode (model correction matrix)"
    },
    {
      "children": [
        3
      ],
      "matrix": [
        1,
        0,
        0,
        0,
        0,
        0,
        1,
        0,
        0,
        -1,
        0,
        0,
        0,
        0,
        0,
        1
      ],
      "name": "3ac2cd4ba65e4c518b978af2267502c9.fbx"
    },
    {
      "children": [
        4,
        6
      ],
      "name": "RootNode"
    },
    {
      "children": [
        5
      ],
      "matrix": [
        1,
        0,
        0,
        0,
        0,
        2.2204460492503131e-16,
        -1,
        0,
        0,
        1,
        2.2204460492503131e-16,
        0,
        0,
        0,
        0,
        1
      ],
      "name": "Plane001"
    },
    {
      "mesh": 0,
      "name": "Plane001_FLOOR_0"
    },
    {
      "children": [
        7
      ],
      "matrix": [
        1,
        0,
        0,
        0,
        0,
        0.99999999999998668,
        1.6292068494294582e-07,
        0,
        0,
        -1.6292068494294582e-07,
        0.99999999999998668,
        0,
        0,
        0.10866508632898331,
        0,
        1
      ],
      "name": "Ritchie_Armchair_RainbowButtons"
    },
    {
      "children": [
        8,
        9,
        10
      ],
      "matrix": [
        1,
        0,
        -0,
        0,
        0,
        1,
        0,
        0,
        0,
        0,
        1,
        0,
        0.060451507568359375,
        27.408428192138672,
        -0.64879953861236572,
        1
      ],
      "name": ""
    },
    {
      "mesh": 1,
      "name": "Ritchie_Armchair_RainbowButtons_PEARL_GREY_0"
    },
    {
      "mesh": 2,
      "name": "Ritchie_Armchair_RainbowButtons_RAINBOW_BUTTONS_0"
    },
    {
      "mesh": 3,
      "name": "Ritchie_Armchair_RainbowButtons_LEGS_0"
    }
  ],
  "samplers": [
    {
      "magFilter": 9729,
      "minFilter": 9987,
      "wrapS": 10497,
      "wrapT": 10497
    }
  ],
  "scene": 0,
  "scenes": [
    {
      "name": "OSG_Scene",
      "nodes": [
        0
      ]
    }
  ],
  "textures": [
    {
      "sampler": 0,
      "source": 0
    },
    {
      "sampler": 0,
      "source": 1
    },
    {
      "sampler": 0,
      "source": 2
    },
    {
      "sampler": 0,
      "source": 3
    },
    {
      "sampler": 0,
      "source": 4
    },
    {
      "sampler": 0,
      "source": 5
    }
  ]
}

